<svg width="30" height="30" viewBox="0 0 30 30" fill="none" xmlns="http://www.w3.org/2000/svg">
<path d="M15 30C23.2843 30 30 23.2843 30 15C30 6.71573 23.2843 0 15 0C6.71573 0 0 6.71573 0 15C0 23.2843 6.71573 30 15 30Z" fill="#F59227"/>
<path d="M23.9625 16.2078V22.392H20.377V16.6223C20.377 15.1736 19.8594 14.1842 18.5612 14.1842C17.5705 14.1842 16.982 14.8503 16.7221 15.4952C16.6277 15.7257 16.6034 16.0458 16.6034 16.3691V22.3917H13.0177C13.0177 22.3917 13.0658 12.6197 13.0177 11.6082H16.6036V13.1363C16.5964 13.1484 16.5863 13.1601 16.5798 13.1716H16.6036V13.1363C17.0801 12.4032 17.9299 11.355 19.835 11.355C22.1939 11.355 23.9625 12.8962 23.9625 16.2078ZM9.26674 6.41016C8.04023 6.41016 7.23779 7.21527 7.23779 8.27306C7.23779 9.30839 8.01696 10.1368 9.21968 10.1368H9.24294C10.4935 10.1368 11.2711 9.30839 11.2711 8.27306C11.2473 7.21527 10.4935 6.41016 9.26674 6.41016ZM7.4509 22.392H11.0353V11.6082H7.4509V22.392Z" fill="white"/>
</svg>
