<svg width="188" height="187" viewBox="0 0 188 187" fill="none" xmlns="http://www.w3.org/2000/svg">
<g clip-path="url(#clip0_898_697)">
<rect x="0.5" width="187" height="187" rx="93.5" fill="#F5EEFF"/>
<path d="M109.921 114.28H79.9536C84.6294 128.377 80.3304 134.813 80.3304 134.813L90.699 139.79H99.1752L109.544 134.813C109.544 134.813 105.245 128.377 109.921 114.28Z" fill="#FED198" stroke="#262626" stroke-width="2.30793"/>
<mask id="path-3-inside-1_898_697" fill="white">
<path fill-rule="evenodd" clip-rule="evenodd" d="M94.9377 29.3096C77.9673 29.3096 64.2102 37.4648 64.2102 73.0757C64.2102 73.4717 64.2125 73.8648 64.2171 74.2552C61.5604 74.8447 59.6976 76.5284 61.25 85.6094C62.7724 94.5106 64.6323 95.618 67.2004 95.3505C67.9024 97.6841 68.7077 99.846 69.5937 101.846C76.6951 117.872 88.9867 123.474 94.9377 123.474C100.889 123.474 113.18 117.872 120.281 101.846C121.168 99.8449 121.973 97.6818 122.675 95.3468C125.263 95.6284 127.133 94.5526 128.662 85.6095C130.222 76.4862 128.334 74.8293 125.658 74.2471C125.662 73.8594 125.664 73.4689 125.664 73.0757C125.664 37.4648 111.907 29.3096 94.9377 29.3096Z"/>
</mask>
<path fill-rule="evenodd" clip-rule="evenodd" d="M94.9377 29.3096C77.9673 29.3096 64.2102 37.4648 64.2102 73.0757C64.2102 73.4717 64.2125 73.8648 64.2171 74.2552C61.5604 74.8447 59.6976 76.5284 61.25 85.6094C62.7724 94.5106 64.6323 95.618 67.2004 95.3505C67.9024 97.6841 68.7077 99.846 69.5937 101.846C76.6951 117.872 88.9867 123.474 94.9377 123.474C100.889 123.474 113.18 117.872 120.281 101.846C121.168 99.8449 121.973 97.6818 122.675 95.3468C125.263 95.6284 127.133 94.5526 128.662 85.6095C130.222 76.4862 128.334 74.8293 125.658 74.2471C125.662 73.8594 125.664 73.4689 125.664 73.0757C125.664 37.4648 111.907 29.3096 94.9377 29.3096Z" fill="#FFDEB2"/>
<path d="M64.2171 74.2552L64.7674 76.7349L66.7814 76.2879L66.7569 74.2251L64.2171 74.2552ZM61.25 85.6094L58.7463 86.0374L58.7463 86.0376L61.25 85.6094ZM67.2004 95.3505L69.6327 94.6188L69.0273 92.6065L66.9373 92.8242L67.2004 95.3505ZM69.5937 101.846L67.2714 102.875L67.2714 102.875L69.5937 101.846ZM120.281 101.846L122.604 102.875L122.604 102.874L120.281 101.846ZM122.675 95.3468L122.95 92.8217L120.851 92.5932L120.243 94.6152L122.675 95.3468ZM128.662 85.6095L126.158 85.1815L128.662 85.6095ZM125.658 74.2471L123.118 74.2172L123.093 76.2887L125.118 76.729L125.658 74.2471ZM66.7502 73.0757C66.7502 55.5075 70.16 45.3023 75.1389 39.4911C80.0276 33.7851 86.843 31.8496 94.9377 31.8496V26.7696C86.062 26.7696 77.5136 28.9116 71.2812 36.1859C65.1389 43.3551 61.6702 55.033 61.6702 73.0757H66.7502ZM66.7569 74.2251C66.7524 73.8448 66.7502 73.4617 66.7502 73.0757H61.6702C61.6702 73.4816 61.6726 73.8848 61.6773 74.2852L66.7569 74.2251ZM63.7537 85.1814C62.9873 80.6985 63.1827 78.5866 63.537 77.6304C63.6808 77.2421 63.8257 77.1155 63.9124 77.0523C64.0391 76.9597 64.2731 76.8446 64.7674 76.7349L63.6668 71.7755C62.8328 71.9606 61.8377 72.277 60.9164 72.9497C59.9551 73.6517 59.2332 74.6242 58.7733 75.8657C57.9201 78.1689 57.9603 81.4394 58.7463 86.0374L63.7537 85.1814ZM66.9373 92.8242C66.4871 92.8711 66.3254 92.8266 66.2765 92.8086C66.2704 92.8064 66.1377 92.772 65.8944 92.4342C65.2905 91.5953 64.5122 89.6167 63.7536 85.1812L58.7463 86.0376C59.5101 90.5033 60.4231 93.5291 61.7717 95.4023C62.5048 96.4205 63.4137 97.1692 64.5261 97.5775C65.5958 97.9702 66.6297 97.9637 67.4636 97.8769L66.9373 92.8242ZM71.9159 100.817C71.0738 98.916 70.305 96.8535 69.6327 94.6188L64.7681 96.0823C65.4999 98.5147 66.3415 100.776 67.2714 102.875L71.9159 100.817ZM94.9377 120.934C90.1837 120.934 78.6943 116.114 71.9159 100.817L67.2714 102.875C74.6959 119.63 87.7896 126.014 94.9377 126.014V120.934ZM117.959 100.817C111.181 116.114 99.6916 120.934 94.9377 120.934V126.014C102.086 126.014 115.179 119.63 122.604 102.875L117.959 100.817ZM120.243 94.6152C119.571 96.8514 118.801 98.9151 117.959 100.817L122.604 102.874C123.534 100.775 124.376 98.5121 125.108 96.0783L120.243 94.6152ZM122.401 97.8718C123.232 97.9623 124.268 97.9771 125.341 97.5939C126.461 97.1942 127.379 96.4506 128.121 95.4304C129.481 93.5574 130.399 90.5223 131.166 86.0375L126.158 85.1815C125.396 89.6397 124.614 91.6141 124.011 92.4443C123.77 92.7758 123.64 92.8073 123.634 92.8096C123.581 92.8284 123.412 92.872 122.95 92.8217L122.401 97.8718ZM131.166 86.0375C131.955 81.4196 131.993 78.1386 131.126 75.8319C130.658 74.587 129.926 73.6176 128.957 72.9218C128.03 72.2563 127.031 71.9464 126.197 71.7651L125.118 76.729C125.622 76.8389 125.863 76.9544 125.994 77.0484C126.083 77.1121 126.227 77.2363 126.371 77.6188C126.727 78.567 126.928 80.676 126.158 85.1815L131.166 86.0375ZM123.124 73.0757C123.124 73.459 123.122 73.8395 123.118 74.2172L128.197 74.2769C128.202 73.8792 128.204 73.4788 128.204 73.0757H123.124ZM94.9377 31.8496C103.032 31.8496 109.847 33.7851 114.736 39.4911C119.715 45.3023 123.124 55.5075 123.124 73.0757H128.204C128.204 55.033 124.736 43.3551 118.594 36.1859C112.361 28.9116 103.813 26.7696 94.9377 26.7696V31.8496Z" fill="#262626" mask="url(#path-3-inside-1_898_697)"/>
<path d="M151.473 153.045C148.656 142.535 124.539 134.038 94.8088 134.038C65.0784 134.038 41.2185 142.535 38.4013 153.045C37.1457 157.729 35.7194 166.604 34.5 175.208C50.9695 188.667 72.0099 196.744 94.9386 196.744C117.866 196.744 138.905 188.667 155.375 175.209C154.155 166.604 152.729 157.729 151.473 153.045Z" fill="#884DDB" stroke="#262626" stroke-width="1.53862"/>
<path d="M109.514 134.812C109.514 134.812 106.079 141.491 94.8256 141.491C83.572 141.491 80.3611 134.812 80.3611 134.812C80.3611 134.812 77.6583 155.875 94.967 155.875C112.275 155.875 109.514 134.812 109.514 134.812Z" fill="#7F3E09"/>
<path d="M94.8414 127.719L80.3311 134.814C80.3311 134.814 86.8145 145.63 94.8252 145.63C102.836 145.63 109.544 134.814 109.544 134.814L94.8414 127.719Z" fill="#FED198"/>
<path d="M94.9378 43.2443C99.6076 43.2443 103.886 41.9542 107.03 39.8084C110.168 37.6664 112.273 34.5884 112.273 31.0452C112.273 27.5019 110.168 24.4239 107.03 22.282C103.886 20.1361 99.6076 18.846 94.9378 18.846C90.2679 18.846 85.9892 20.1361 82.8455 22.282C79.7076 24.4239 77.6029 27.5019 77.6029 31.0452C77.6029 34.5884 79.7076 37.6664 82.8455 39.8084C85.9892 41.9542 90.2679 43.2443 94.9378 43.2443Z" fill="#3E3E3E" stroke="black" stroke-width="2.30793"/>
<path d="M94.9372 29.3125C72.848 29.3125 63.0874 38.9722 63.0874 74.5827C63.0874 74.5827 110.348 64.3728 110.348 51.4094C110.348 64.3728 126.787 74.5827 126.787 74.5827C126.787 38.9722 117.026 29.3125 94.9372 29.3125Z" fill="black"/>
<path d="M66.6836 76.1209C66.5191 75.081 66.4948 74.1306 66.5222 73.3673C66.5618 72.2689 66.7094 71.5615 66.7094 71.5615L63.0974 72.91C63.0909 73.4602 63.0874 74.0165 63.0874 74.5794C63.0874 74.5794 63.4773 74.4542 64.1658 74.2157C64.1334 74.2269 64.0988 74.2392 64.0675 74.2496C64.5638 75.0934 65.186 76.3887 65.7847 78.3035C65.7847 78.3043 67.1956 79.3553 66.6836 76.1209Z" fill="black"/>
<path d="M126.778 72.9056L123.18 71.5625C123.18 71.5625 123.329 72.2733 123.368 73.3764C123.395 74.1385 123.37 75.0855 123.206 76.1219C122.694 79.3559 124.105 78.3053 124.105 78.3053C124.702 76.3943 125.32 75.099 125.812 74.2537C126.437 74.4683 126.787 74.5808 126.787 74.5808C126.788 74.0156 126.784 73.4573 126.778 72.9056Z" fill="black"/>
<path d="M94.8255 139.789L80.3613 134.812C80.3613 134.812 88.152 188.366 94.9669 188.366C101.782 188.366 109.513 134.812 109.513 134.812L94.8255 139.789Z" fill="#CBCBCB" stroke="#262626" stroke-width="2.30793" stroke-linejoin="round"/>
<path d="M94.8251 139.789L78.7559 134.812C78.7559 134.812 94.9295 188.366 94.9668 188.366L94.8251 139.789Z" fill="#CBCBCB"/>
<path d="M110.262 129.739L94.9302 139.788C94.9302 139.788 108.041 143.805 108.106 143.741L117.156 135.729L110.262 129.739Z" fill="#E5E8EB" stroke="#262626" stroke-width="2.30793" stroke-linejoin="round"/>
<path d="M79.6135 129.739L72.7197 135.729L81.7695 143.741C81.8339 143.806 94.9295 139.789 94.9295 139.789L79.6135 129.739Z" fill="#E5E8EB" stroke="#262626" stroke-width="2.30793" stroke-linejoin="round"/>
<path d="M94.9376 194.178L94.9295 188.367C94.9295 188.367 81.8339 143.807 81.7696 143.742L75.0958 133.642L70.2798 136.122L73.362 157.416L79.6548 156.004L75.0314 161.654L94.9376 194.178Z" fill="#B581FF" stroke="#262626" stroke-width="2.30793"/>
<path d="M119.595 136.122L114.779 133.642L108.106 143.743C108.041 143.807 94.9456 188.367 94.9456 188.367L94.9375 194.178L114.844 161.655L110.22 156.004L116.513 157.417L119.595 136.122Z" fill="#B581FF" stroke="#262626" stroke-width="2.30793"/>
</g>
<defs>
<clipPath id="clip0_898_697">
<rect x="0.5" width="187" height="187" rx="93.5" fill="white"/>
</clipPath>
</defs>
</svg>
